<svg data-name="Layer 1" viewBox="0 0 512 512" xmlns="http://www.w3.org/2000/svg"><path d="M464.57 274a5.69 5.69 0 0 0 5.69-5.69v-59.77a5.69 5.69 0 0 0-5.69-5.69H404.8a5.69 5.69 0 0 0 0 11.38h46l-67 67-52.95 52.94-30.88 30.88-74.71-74.55 225.05-225v46a5.69 5.69 0 0 0 11.38 0V51.71A5.68 5.68 0 0 0 456 46h-59.76a5.69 5.69 0 1 0 0 11.37h46l-225 225.06-51.81-51.81a5.69 5.69 0 0 0-8 0l-114 114a5.69 5.69 0 0 0 8 8.05l109.96-109.95 47.78 47.78L43.41 456.26a5.68 5.68 0 0 0 4 9.71h417.16a5.69 5.69 0 1 0 0-11.37h-71.06v-167l65.37-65.38v46a5.69 5.69 0 0 0 5.69 5.78ZM299.91 378.89a5.69 5.69 0 0 0 4-1.67L329.14 352v102.6h-41.6v-85.73l8.35 8.35a5.68 5.68 0 0 0 4.02 1.67Zm-23.75 75.71h-41.61V315.88l41.61 41.61Zm-53-150.1v150.1h-41.6V334.19l35.65-35.65Zm-53 150.1h-41.58v-67.42l41.61-41.61Zm-53-56.05v56.05h-56Zm264.92-60.28V454.6h-41.56v-114l41.61-41.6ZM256 57.4h84.05a5.69 5.69 0 1 0 0-11.37H256a5.69 5.69 0 1 0 0 11.37Z" fill="#ffffff" class="fill-000000"></path><path d="M340.05 83H298a5.69 5.69 0 1 0 0 11.38h42A5.69 5.69 0 0 0 340 83Z" fill="#ffffff" class="fill-000000"></path></svg>